<?xml version="1.0" encoding="utf-8"?>
<!-- Generator: Adobe Illustrator 26.0.2, SVG Export Plug-In . SVG Version: 6.00 Build 0)  -->
<svg version="1.1" id="Layer_1" xmlns="http://www.w3.org/2000/svg" xmlns:xlink="http://www.w3.org/1999/xlink" x="0px" y="0px"
	 viewBox="0 0 220 500" style="enable-background:new 0 0 220 500;" xml:space="preserve">
<style type="text/css">
	.st0{fill:#DA4928;}
</style>
<image style="display:none;overflow:visible;" width="421" height="703" xlink:href="Screenshot_195.png"  transform="matrix(0.75 0 0 0.75 92 -13)">
</image>
<path class="st0" d="M138.9,0.1c-0.1-0.1-0.2-0.1-0.2,0c-2.3,1.6-33.5,23.4-33.5,42.2c0,28.2,69.4,32.5,46.6,56.4
	c-26.7,27.9-113.9,49.9-113.9,97.6c0,42.3,64.8,74,93.3,89c21.4,11.2,42.5,22.6,57.5,34.7c22.8,18.4,23.9,26,23.9,26
	s35.8-68.3-49.9-108.5c-14.7-6.9-44.5-25.1-41.2-49.9c3.3-25,34.7-48.8,42.3-54.2c10-7.2,32.8-27.1,31.5-43.4
	c-1.1-13-21.8-29.2-33.6-34.7c-16.3-7.6-28.2-9.8-28.2-16.3c0-6.7,19-16.6,22.3-18.2c0.2-0.1,0.3-0.4,0.1-0.6L138.9,0.1z"/>
<path class="st0" d="M2.1,244.1C2,245.3,1.6,274,75.8,312.4c65.1,33.6,98.7,40.1,107.4,80.3c5.6,25.8-26,45.6-42.3,58.6
	c-19.4,15.5-85.8,46.8-89.9,48.7c-0.1,0.1-0.2,0-0.3-0.1l-13.9-19.2c0-0.1,0-0.1,0-0.2c3.1-1.3,68.3-28.1,71.5-69.4
	c1.4-18-27.1-39.1-51-51c-33-16.5-52.4-40.9-55.3-57.5C-3.2,272.9,2.1,244.1,2.1,244.1z"/>
</svg>
