<?xml version="1.0" encoding="utf-8"?>
<!-- Generator: Adobe Illustrator 26.0.2, SVG Export Plug-In . SVG Version: 6.00 Build 0)  -->
<svg version="1.1" id="Layer_1" xmlns="http://www.w3.org/2000/svg" xmlns:xlink="http://www.w3.org/1999/xlink" x="0px" y="0px"
	 viewBox="0 0 330 79" style="enable-background:new 0 0 330 79;" xml:space="preserve">
<style type="text/css">
	.st0{fill:#DA4928;}
	.st1{stroke:#000000;stroke-miterlimit:10;}
</style>
<image style="display:none;overflow:visible;" width="329" height="138" xlink:href="D:\IMAGES\Screenshots\Screenshot_195.png"  transform="matrix(1.3237 0 0 1.3237 25 149)">
</image>
<path class="st0" d="M127.4,27.5L2,29.5c-1.1,0-2,0.9-2,2v16.2c0,1.1,0.9,2,2,2l124.4,2.8h0c14.4,0,26.1,11.6,26.1,26v0l173.6-3.9
	c2.2,0,3.9-1.8,3.9-4v-2.1c0-2.2-1.8-4-4-4H211.6c-5.5,0-10-4.5-10-10v0c0-5.5,4.5-10,10-10H326c2.2,0,4-1.8,4-4v-2c0-2.2-1.8-4-4-4
	H211.6c-5.5,0-10-4.5-10-10v0c0-5.5,4.5-10,10-10H326c2.2,0,4-1.8,4-4V8.4c0-2.2-1.7-3.9-3.9-4L152.5,0.5v2
	C152.5,16.3,141.2,27.5,127.4,27.5L127.4,27.5"/>
<path class="st1" d="M284.5,227.5"/>
</svg>
