<?xml version="1.0" encoding="utf-8"?>
<!-- Generator: Adobe Illustrator 26.0.2, SVG Export Plug-In . SVG Version: 6.00 Build 0)  -->
<svg version="1.1" id="Layer_1" xmlns="http://www.w3.org/2000/svg" xmlns:xlink="http://www.w3.org/1999/xlink" x="0px" y="0px"
	 viewBox="0 0 330 79" style="enable-background:new 0 0 330 79;" xml:space="preserve">
<style type="text/css">
	.st0{fill:#163A01;}
	.st1{stroke:#000000;stroke-miterlimit:10;}
</style>
<image style="display:none;overflow:visible;enable-background:new    ;" width="329" height="138" xlink:href="D:\IMAGES\Screenshots\Screenshot_195.png"  transform="matrix(1.3237 0 0 1.3237 25 149)">
</image>
<path class="st0" d="M202.6,27.5l125.4,2c1.1,0,2,0.9,2,2v16.2c0,1.1-0.9,2-2,2l-124.4,2.8l0,0c-14.4,0-26.1,11.6-26.1,26l0,0
	L3.9,74.6c-2.2,0-3.9-1.8-3.9-4v-2.1c0-2.2,1.8-4,4-4h114.3c5.5,0,10-4.5,10-10l0,0c0-5.5-4.5-10-10-10H4c-2.2,0-4-1.8-4-4v-2
	c0-2.2,1.8-4,4-4h114.3c5.5,0,10-4.5,10-10l0,0c0-5.5-4.5-10-10-10H4c-2.2,0-4-1.8-4-4V8.4c0-2.2,1.7-3.9,3.9-4l173.6-3.9v2
	C177.5,16.3,188.8,27.5,202.6,27.5L202.6,27.5"/>
<path class="st1" d="M284.5,227.5"/>
</svg>
