<?xml version="1.0" encoding="utf-8"?>
<!-- Generator: Adobe Illustrator 26.0.2, SVG Export Plug-In . SVG Version: 6.00 Build 0)  -->
<svg version="1.1" id="Layer_1" xmlns="http://www.w3.org/2000/svg" xmlns:xlink="http://www.w3.org/1999/xlink" x="0px" y="0px"
	 viewBox="0 0 501 501" style="enable-background:new 0 0 501 501;" xml:space="preserve">
<style type="text/css">
	.st0{fill:none;stroke:#000000;stroke-miterlimit:10;}
	.st1{display:none;fill:none;stroke:#000000;stroke-miterlimit:10;}
	.st2{fill:#FFFFFF;stroke:#000000;stroke-miterlimit:10;}
</style>
<circle class="st0" cx="250.5" cy="250.5" r="250"/>
<path class="st1" d="M339.2,462.5"/>
<path class="st1" d="M251.5,21.5"/>
<path class="st1" d="M255.8,21"/>
<path class="st2" d="M353.6,454.6c20.9-10.6,40.4-24.7,57.9-42.1c89.4-89.4,89.4-234.4,0-323.9C374.9,52,329,30.4,281.4,23.7
	l-0.2,0.2c0,0-7.7,9.6-7.7,19.6s11,25,69,56s80,78,80,106c0,13,6,48-56,98s-55,71-55,82S313.5,421.5,353.6,454.6L353.6,454.6z"/>
<path class="st0" d="M312.9,470.5c-242.8-62-254.4-134-255.4-172c-1-38,17-77,59-95s66-26,66-51c0-23.2-30.2-20.6-34.5-20.1
	c-0.3,0-0.6-0.2-0.6-0.5l-5.7-21c0,0,0,0,0,0c0-0.3,0.1-0.5,0.4-0.5c11.7-2.5,23.6-3.8,35.5-3.9c19,0,47.5,7.5,63,23
	c14,14,15,22,15,30c0,11-4,16.2-5.5,17.6c0,0-0.1,0.1-0.1,0.1c-0.1,0.2,0,0.5,0.2,0.6l18,10.4c0.3,0.2,0.7,0.2,1,0
	c6.1-3.4,17.5-25.2,18.5-41.7c1-17-7-29-21-45s-24-28-27-47s11.9-33,11.9-33l0,0C192.1,21,132.8,43.4,87.6,88.6
	C-1.9,178-1.9,323,87.6,412.4C148.6,473.4,235.5,492.8,312.9,470.5"/>
</svg>
