<?xml version="1.0" encoding="utf-8"?>
<!-- Generator: Adobe Illustrator 26.0.2, SVG Export Plug-In . SVG Version: 6.00 Build 0)  -->
<svg version="1.1" id="Layer_1" xmlns="http://www.w3.org/2000/svg" xmlns:xlink="http://www.w3.org/1999/xlink" x="0px" y="0px"
	 viewBox="0 0 501 501" style="enable-background:new 0 0 501 501;" xml:space="preserve">
<style type="text/css">
	.st0{display:none;fill:none;stroke:#000000;stroke-miterlimit:10;}
	.st1{fill:#FFFFFF;stroke:#000000;stroke-width:26;stroke-miterlimit:10;}
	.st2{fill:none;stroke:#000000;stroke-width:26;stroke-miterlimit:10;}
</style>
<path class="st0" d="M339.2,462.5"/>
<path class="st0" d="M251.5,21.5"/>
<path class="st0" d="M255.8,21"/>
<path class="st1" d="M358.4,462.2c21.7-11,41.9-25.6,60-43.7c92.6-92.7,92.6-243,0-335.9c-37.9-38-85.5-60.3-134.8-67.3l-0.2,0.2
	c0,0-8,10-8,20.3s11.4,25.9,71.5,58.1s82.9,80.9,82.9,109.9c0,13.5,6.2,49.8-58,101.6s-57,73.6-57,85
	C314.7,401.9,316.8,427.9,358.4,462.2L358.4,462.2z"/>
<path class="st2" d="M316.2,478.7C64.6,414.4,52.5,339.7,51.5,300.3c-1-39.4,17.6-79.8,61.1-98.5s68.4-27,68.4-52.9
	c0-24.1-31.3-21.4-35.8-20.8c-0.3,0-0.6-0.2-0.6-0.5l-5.9-21.8l0,0c0-0.3,0.1-0.5,0.4-0.5c12.1-2.6,24.5-3.9,36.8-4
	c19.7,0,49.2,7.8,65.3,23.8c14.5,14.5,15.5,22.8,15.5,31.1c0,11.4-4.1,16.8-5.7,18.2l-0.1,0.1c-0.1,0.2,0,0.5,0.2,0.6l18.7,10.8
	c0.3,0.2,0.7,0.2,1,0c6.3-3.5,18.1-26.1,19.2-43.2c1-17.6-7.3-30.1-21.8-46.7s-24.9-29-28-48.7c-3.1-19.7,12.3-34.2,12.3-34.2l0,0
	c-61.7-0.5-123.1,22.7-170,69.6c-92.8,92.7-92.8,243,0,335.7C145.9,481.7,236,501.8,316.2,478.7"/>
</svg>
